<?xml version="1.0" encoding="UTF-8" standalone="no"?>
<!-- Created with Inkscape (http://www.inkscape.org/) -->

<svg
   width="145.86082mm"
   height="98.737907mm"
   viewBox="0 0 145.86082 98.737907"
   version="1.1"
   id="svg5"
   xml:space="preserve"
   xmlns="http://www.w3.org/2000/svg"
   xmlns:svg="http://www.w3.org/2000/svg"><defs
     id="defs2" /><g
     id="layer1"><rect
       style="fill:#081f87;fill-opacity:1;stroke-width:0.278419"
       id="rect493"
       width="145.86084"
       height="98.7379"
       x="0"
       y="0" /><rect
       style="opacity:1;fill:#f5db47;fill-opacity:1;stroke-width:0.268135"
       id="rect1549"
       width="62.607574"
       height="42.619171"
       x="0"
       y="0" /><path
       style="opacity:1;fill:#a72736;fill-opacity:1;stroke-width:0.264583"
       id="path5864"
       d="M 131.60138,78.986253 105.79606,60.225638 79.855059,78.798187 89.723183,48.458523 64.043429,29.526399 l 31.904153,0.0097 10.070038,-30.27324519 9.84973,30.34564119 31.90338,0.22223 -25.81669,18.744966 z"
       transform="matrix(0.27509174,0,0,0.27733746,1.0706961,9.3014976)" /><path
       style="display:inline;opacity:1;fill:#f1f0fc;fill-opacity:1;stroke-width:0.264583"
       id="path5864-3"
       d="M 131.60138,78.986253 105.79606,60.225638 79.855059,78.798187 89.723183,48.458523 64.043429,29.526399 l 31.904153,0.0097 10.070038,-30.27324519 9.84973,30.34564119 31.90338,0.22223 -25.81669,18.744966 z"
       transform="matrix(0.09483131,0.02257363,-0.01905955,0.09563023,120.61629,49.567555)" /><path
       style="display:inline;fill:#f1f0fc;fill-opacity:1;stroke-width:0.264583"
       id="path5864-3-6"
       d="M 131.60138,78.986253 105.79606,60.225638 79.855059,78.798187 89.723183,48.458523 64.043429,29.526399 l 31.904153,0.0097 10.070038,-30.27324519 9.84973,30.34564119 31.90338,0.22223 -25.81669,18.744966 z"
       transform="matrix(0.08754981,0.04173537,-0.03851355,0.08881836,114.31051,60.93079)" /><path
       style="display:inline;fill:#f1f0fc;fill-opacity:1;stroke-width:0.264583"
       id="path5864-3-6-7"
       d="M 131.60138,78.986253 105.79606,60.225638 79.855059,78.798187 89.723183,48.458523 64.043429,29.526399 l 31.904153,0.0097 10.070038,-30.27324519 9.84973,30.34564119 31.90338,0.22223 -25.81669,18.744966 z"
       transform="matrix(0.06833328,0.07720838,-0.07646594,0.06737435,106.3595,67.045775)" /><path
       style="display:inline;fill:#f1f0fc;fill-opacity:1;stroke-width:0.264583"
       id="path5864-3-6-7-5"
       d="M 131.60138,78.986253 105.79606,60.225638 79.855059,78.798187 89.723183,48.458523 64.043429,29.526399 l 31.904153,0.0097 10.070038,-30.27324519 9.84973,30.34564119 31.90338,0.22223 -25.81669,18.744966 z"
       transform="matrix(0.04014604,0.08942089,-0.08901941,0.0390303,96.90123,71.458348)" /></g></svg>
